# xmcd
#
# Track frame offsets:
# 150
# 19185
# 35497
# 56215
# 70587
# 99911
# 116663
# 128921
# 146262
# 158694
#
# Disc length: 2254 seconds
#
#
# Revision: 0
# Processed by: cddbd v1.5.1PL2 Copyright (c) Steve Scherf et al.
# Submitted via: FreeRIP 2.941 
#
DISCID=8008cc0a
DTITLE=Chris Hiatt - Is Too
DYEAR=2005
DGENRE=Blues
TTITLE0=Understand
TTITLE1=Rise Again
TTITLE2=Play this Way
TTITLE3=Sin City Jump
TTITLE4=2 Day Blues
TTITLE5=One O'Clock Girl
TTITLE6=After Tonight
TTITLE7=Thangs Together
TTITLE8=Down the Hallway
TTITLE9=Sho' Thing
EXTD=
EXTT0=
EXTT1=
EXTT2=
EXTT3=
EXTT4=
EXTT5=
EXTT6=
EXTT7=
EXTT8=
EXTT9=
PLAYORDER=
